<svg width="24" height="25" viewBox="0 0 24 25" fill="none" xmlns="http://www.w3.org/2000/svg">
<path d="M6.47003 4.9343L5.00003 6.4243C4.60335 6.81673 4.28843 7.28394 4.07351 7.79889C3.85859 8.31384 3.74792 8.8663 3.74792 9.4243C3.74792 9.9823 3.85859 10.5348 4.07351 11.0497C4.28843 11.5647 4.60335 12.0319 5.00003 12.4243L12.47 19.8843C12.8625 20.281 13.3297 20.5959 13.8446 20.8108C14.3596 21.0257 14.912 21.1364 15.47 21.1364C16.028 21.1364 16.5805 21.0257 17.0954 20.8108C17.6104 20.5959 18.0776 20.281 18.47 19.8843L20 18.4143C20.1045 18.3161 20.1877 18.1976 20.2446 18.066C20.3015 17.9345 20.3308 17.7926 20.3308 17.6493C20.3308 17.506 20.3015 17.3641 20.2446 17.2326C20.1877 17.101 20.1045 16.9825 20 16.8843L17.76 14.6343C17.5599 14.4376 17.2906 14.3274 17.01 14.3274C16.7295 14.3274 16.4601 14.4376 16.26 14.6343L15.51 15.3843C15.3099 15.581 15.0406 15.6911 14.76 15.6911C14.4795 15.6911 14.2101 15.581 14.01 15.3843L9.47003 10.8843C9.27338 10.6842 9.16318 10.4149 9.16318 10.1343C9.16318 9.85374 9.27338 9.5844 9.47003 9.3843L10.22 8.6343C10.4167 8.43419 10.5269 8.16486 10.5269 7.8843C10.5269 7.60374 10.4167 7.3344 10.22 7.1343L8.00003 4.9343C7.90185 4.82987 7.78332 4.74664 7.65176 4.68975C7.52019 4.63286 7.37837 4.60352 7.23503 4.60352C7.09169 4.60352 6.94987 4.63286 6.8183 4.68975C6.68674 4.74664 6.56821 4.82987 6.47003 4.9343Z" stroke="#2F38FF" stroke-width="1.5" stroke-linecap="round" stroke-linejoin="round"/>
</svg>
