<svg width="24" height="25" viewBox="0 0 24 25" fill="none" xmlns="http://www.w3.org/2000/svg">
<g clip-path="url(#clip0_63_24)">
<path d="M23.5735 4.79761C23.2625 4.43002 22.827 4.20549 22.3472 4.16541L5.44615 2.7542C4.96625 2.71412 4.49965 2.86332 4.13201 3.17425C3.76588 3.48395 3.54167 3.91721 3.50033 4.39473L3.1603 7.58484H1.80257C0.808637 7.58484 0 8.39348 0 9.38741V19.9671C0 20.9611 0.808637 21.7697 1.80257 21.7697H18.7625C19.7565 21.7697 20.5651 20.9611 20.5651 19.9671V18.2509L21.1669 18.3012C21.2177 18.3054 21.2682 18.3075 21.3182 18.3075C22.2449 18.3075 23.0348 17.5946 23.1133 16.6548L23.9936 6.1118C24.0337 5.63194 23.8845 5.16525 23.5735 4.79761ZM1.80257 8.52233H18.7625C19.2395 8.52233 19.6276 8.91041 19.6276 9.38741V10.3514H0.937496V9.38741C0.937496 8.91041 1.32557 8.52233 1.80257 8.52233ZM0.937496 11.2889H19.6276V13.2337H0.937496V11.2889ZM18.7625 20.8322H1.80257C1.32557 20.8322 0.937496 20.4441 0.937496 19.9671V14.1712H19.6276V19.9671C19.6276 20.4441 19.2395 20.8322 18.7625 20.8322ZM23.0594 6.03375L22.179 16.5768C22.1393 17.0521 21.7202 17.4068 21.2449 17.3669L20.5651 17.3101V9.38741C20.5651 8.39348 19.7565 7.58484 18.7625 7.58484H4.10314L4.43309 4.48922C4.43347 4.48566 4.43379 4.48215 4.43408 4.47854C4.47378 4.00318 4.89265 3.64862 5.36815 3.68846L22.2692 5.09968C22.4995 5.11889 22.7086 5.22666 22.8578 5.4031C23.007 5.57953 23.0786 5.80345 23.0594 6.03375Z" fill="#2F38FF"/>
<path d="M17.6659 15.5649H13.1545C12.8957 15.5649 12.6858 15.7748 12.6858 16.0337V18.9769C12.6858 19.2358 12.8957 19.4457 13.1545 19.4457H17.6659C17.9248 19.4457 18.1346 19.2358 18.1346 18.9769V16.0337C18.1346 15.7748 17.9248 15.5649 17.6659 15.5649ZM17.1971 18.5082H13.6233V16.5024H17.1971V18.5082Z" fill="#2F38FF"/>
</g>
<defs>
<clipPath id="clip0_63_24">
<rect width="24" height="24" fill="white" transform="translate(0 0.258789)"/>
</clipPath>
</defs>
</svg>
