<svg width="22" height="25" viewBox="0 0 22 25" fill="none" xmlns="http://www.w3.org/2000/svg">
<path d="M17.3104 17.3055L15.0824 16.563L14.2826 14.9633C15.0032 14.2299 15.5035 13.2595 15.6722 12.2473L15.7719 11.6494H16.625C17.4004 11.6494 18.0312 11.0186 18.0312 10.2432V7.29004C18.0312 3.41301 14.877 0.258789 11 0.258789C7.11303 0.258789 3.96875 3.40396 3.96875 7.29004V10.2432C3.96875 10.8542 4.36067 11.3753 4.90625 11.5688V12.1182C4.90625 12.8936 5.53709 13.5244 6.3125 13.5244H6.72416C6.92736 13.9658 7.19037 14.3747 7.51044 14.7419C7.57681 14.8183 7.64605 14.8922 7.71697 14.9642L6.91756 16.563L4.68955 17.3055C2.099 18.1694 0.21875 20.8965 0.21875 23.79C0.21875 24.0489 0.428609 24.2588 0.6875 24.2588H21.3125C21.5713 24.2588 21.7812 24.0489 21.7812 23.79C21.7812 20.8965 19.901 18.1694 17.3104 17.3055ZM17.0938 10.2432C17.0938 10.5016 16.8835 10.7119 16.625 10.7119H15.9096C16.0288 9.78895 16.1082 8.80677 16.1401 7.83941C16.141 7.81213 16.1418 7.7856 16.1426 7.75879H17.0938V10.2432ZM5.375 10.7119C5.11653 10.7119 4.90625 10.5016 4.90625 10.2432V7.75879H5.85772C5.85927 7.80768 5.86091 7.8568 5.86273 7.90626C5.86278 7.90795 5.86287 7.90959 5.86292 7.91127C5.86292 7.91141 5.86292 7.91155 5.86292 7.9117C5.89573 8.85257 5.97411 9.80924 6.09055 10.7119H5.375V10.7119ZM6.3125 12.5869C6.05403 12.5869 5.84375 12.3766 5.84375 12.1182V11.6494H6.22803L6.32778 12.2475C6.34681 12.3612 6.3702 12.4744 6.39725 12.5869H6.3125ZM5.84455 6.82129H4.92406C5.16148 3.67968 7.7833 1.19629 11 1.19629C14.2024 1.19629 16.8357 3.67935 17.0759 6.82129H16.1555C16.1218 4.23252 14.0136 2.13379 11.4196 2.13379H10.5805C7.9865 2.13379 5.87825 4.23252 5.84455 6.82129ZM10.5805 3.07129H11.4195C13.52 3.07129 15.22 4.7893 15.2188 6.88738C15.2188 7.0349 15.2176 7.16334 15.2151 7.2802C15.2151 7.28169 15.215 7.28324 15.215 7.28479L14.6287 7.20102C13.0359 6.97359 11.532 6.22162 10.394 5.08359C10.306 4.9957 10.1868 4.94629 10.0625 4.94629C8.80363 4.94629 7.59856 5.51985 6.80197 6.48885C6.99828 4.58015 8.61186 3.07129 10.5805 3.07129ZM7.36906 12.5869C7.13441 11.8063 6.86591 9.50943 6.80656 8.03755L7.43745 7.19634C8.01687 6.42402 8.91833 5.94416 9.87725 5.88909C11.139 7.08984 12.7713 7.88277 14.4962 8.12906L15.1863 8.22768C15.1401 9.20666 15.0459 10.1891 14.9108 11.0926C14.9108 11.0929 14.9107 11.0932 14.9107 11.0935C14.8678 11.384 14.8339 11.5709 14.7475 12.0931C14.4992 13.5821 13.3882 14.9286 11.9215 15.2953C11.3179 15.446 10.682 15.4459 10.0787 15.2953C9.16292 15.0663 8.3232 14.4327 7.78128 13.5244H8.73688C8.93038 14.07 9.45139 14.4619 10.0625 14.4619H11C11.777 14.4619 12.4062 13.8327 12.4062 13.0557C12.4062 12.2803 11.7754 11.6494 11 11.6494H10.0625C9.4378 11.6494 8.92447 12.0529 8.73608 12.5869H7.36906ZM10.0231 16.2439C10.3446 16.3116 10.6724 16.3463 11 16.3463C11.2565 16.3463 11.513 16.3248 11.7665 16.2832L10.9383 17.1591L10.0231 16.2439ZM10.2938 17.8406L8.80705 19.4129C8.39773 18.6294 8.04603 17.814 7.75756 16.9793L8.31589 15.8626L10.2938 17.8406ZM13.6047 15.7038L14.2423 16.9792C13.9534 17.8154 13.6016 18.6311 13.1927 19.4136L11.6014 17.8223L13.6047 15.7038ZM9.59375 13.0557C9.59375 12.7969 9.80366 12.5869 10.0625 12.5869H11C11.2585 12.5869 11.4688 12.7972 11.4688 13.0557C11.4688 13.3145 11.2588 13.5244 11 13.5244H10.0625C9.80403 13.5244 9.59375 13.3141 9.59375 13.0557ZM1.175 23.3213C1.36077 20.9991 2.90619 18.8885 4.98603 18.1949L6.95919 17.5373C7.32069 18.5369 7.76853 19.5085 8.29339 20.4314C8.29428 20.433 8.29513 20.4346 8.29602 20.4361L8.29606 20.4362C8.67955 21.1107 9.11117 21.7698 9.57913 22.3956L10.1558 23.3213H1.175ZM11 22.9034L10.3643 21.8828C10.3572 21.8714 10.3496 21.8603 10.3415 21.8495C9.96191 21.3432 9.60781 20.8136 9.28531 20.2716L10.957 18.5038L12.7185 20.2652C12.3938 20.8112 12.0385 21.3429 11.6586 21.8494C11.6356 21.88 11.6682 21.8318 11 22.9034ZM11.8442 23.3213L12.4208 22.3956C12.8908 21.7675 13.3256 21.1031 13.7129 20.4207C13.7152 20.4165 13.7174 20.4123 13.7198 20.4082C13.7201 20.4077 13.7203 20.4072 13.7206 20.4067C14.2388 19.4926 14.682 18.5295 15.0408 17.5373L17.0139 18.1949C19.0938 18.8885 20.6392 20.9991 20.825 23.3213H11.8442Z" fill="#2F38FF"/>
</svg>
