<svg width="24" height="25" viewBox="0 0 24 25" fill="none" xmlns="http://www.w3.org/2000/svg">
<path d="M9.69592 14.1326C9.62392 14.1326 8.03992 14.1326 7.31992 14.1326C6.93592 14.1326 6.81592 13.9886 6.81592 13.6286C6.81592 12.6686 6.81592 11.6846 6.81592 10.7246C6.81592 10.3406 6.95992 10.2206 7.31992 10.2206H9.69592C9.69592 10.1486 9.69592 8.75659 9.69592 8.10859C9.69592 7.14859 9.86392 6.23659 10.3439 5.39659C10.8479 4.53259 11.5679 3.95659 12.4799 3.62059C13.0799 3.40459 13.6799 3.30859 14.3279 3.30859H16.6799C17.0159 3.30859 17.1599 3.45259 17.1599 3.78859V6.52459C17.1599 6.86059 17.0159 7.00459 16.6799 7.00459C16.0319 7.00459 15.3839 7.00459 14.7359 7.02859C14.0879 7.02859 13.7519 7.34059 13.7519 8.01259C13.7279 8.73259 13.7519 9.42859 13.7519 10.1726H16.5359C16.9199 10.1726 17.0639 10.3166 17.0639 10.7006V13.6046C17.0639 13.9886 16.9439 14.1086 16.5359 14.1086C15.6719 14.1086 13.8239 14.1086 13.7519 14.1086V21.9326C13.7519 22.3406 13.6319 22.4846 13.1999 22.4846C12.1919 22.4846 11.2079 22.4846 10.1999 22.4846C9.83992 22.4846 9.69592 22.3406 9.69592 21.9806C9.69592 19.4606 9.69592 14.2046 9.69592 14.1326Z" fill="#2F38FF"/>
</svg>
