<svg width="24" height="24" viewBox="0 0 24 24" fill="none" xmlns="http://www.w3.org/2000/svg">
<path d="M15.24 10.6799L11.24 8.39991C11.0098 8.27608 10.7516 8.2137 10.4903 8.21879C10.229 8.22388 9.97338 8.29627 9.7482 8.42897C9.52302 8.56166 9.33586 8.75018 9.2048 8.97632C9.07374 9.20245 9.0032 9.45856 9 9.71991V14.2799C8.99936 14.547 9.06913 14.8096 9.20228 15.0412C9.33542 15.2728 9.52725 15.4652 9.75843 15.599C9.9896 15.7328 10.252 15.8034 10.5191 15.8036C10.7862 15.8037 11.0487 15.7335 11.28 15.5999L15.28 13.3199C15.5083 13.1815 15.6963 12.9858 15.8255 12.7522C15.9547 12.5187 16.0206 12.2553 16.0165 11.9884C16.0125 11.7215 15.9387 11.4604 15.8025 11.2308C15.6663 11.0012 15.4723 10.8113 15.24 10.6799Z" stroke="white" stroke-width="1.5" stroke-linecap="round" stroke-linejoin="round"/>
<path d="M12 21C16.9706 21 21 16.9706 21 12C21 7.02944 16.9706 3 12 3C7.02944 3 3 7.02944 3 12C3 16.9706 7.02944 21 12 21Z" stroke="white" stroke-width="1.5" stroke-linecap="round" stroke-linejoin="round"/>
</svg>
