<svg width="48" height="48" viewBox="0 0 48 48" fill="none" xmlns="http://www.w3.org/2000/svg">
<circle cx="24" cy="24" r="24" fill="#2F38FF"/>
<path d="M18.86 26C19.9646 26 20.86 25.1046 20.86 24C20.86 22.8954 19.9646 22 18.86 22C17.7554 22 16.86 22.8954 16.86 24C16.86 25.1046 17.7554 26 18.86 26Z" stroke="white" stroke-width="1.5" stroke-miterlimit="10" stroke-linecap="round"/>
<path d="M29.14 21.05C30.2446 21.05 31.14 20.1546 31.14 19.05C31.14 17.9454 30.2446 17.05 29.14 17.05C28.0354 17.05 27.14 17.9454 27.14 19.05C27.14 20.1546 28.0354 21.05 29.14 21.05Z" stroke="white" stroke-width="1.5" stroke-miterlimit="10" stroke-linecap="round"/>
<path d="M21.03 22.95L27.34 19.91" stroke="white" stroke-width="1.5" stroke-miterlimit="10" stroke-linecap="round"/>
<path d="M29.14 30.95C30.2446 30.95 31.14 30.0546 31.14 28.95C31.14 27.8454 30.2446 26.95 29.14 26.95C28.0354 26.95 27.14 27.8454 27.14 28.95C27.14 30.0546 28.0354 30.95 29.14 30.95Z" stroke="white" stroke-width="1.5" stroke-miterlimit="10" stroke-linecap="round"/>
<path d="M21.03 25.05L27.34 28.09" stroke="white" stroke-width="1.5" stroke-miterlimit="10" stroke-linecap="round"/>
</svg>
