<svg width="48" height="48" viewBox="0 0 48 48" fill="none" xmlns="http://www.w3.org/2000/svg">
<circle cx="24" cy="24" r="24" fill="#2F38FF"/>
<path d="M31 22.25H30.25C30.085 22.2485 29.9241 22.1984 29.7874 22.1059C29.6508 22.0135 29.5443 21.8829 29.4814 21.7304C29.4184 21.5779 29.4018 21.4102 29.4336 21.2483C29.4654 21.0864 29.5441 20.9374 29.66 20.82L30.19 20.29C30.2837 20.197 30.3581 20.0864 30.4089 19.9646C30.4597 19.8427 30.4858 19.712 30.4858 19.58C30.4858 19.448 30.4597 19.3173 30.4089 19.1954C30.3581 19.0736 30.2837 18.963 30.19 18.87L29.13 17.81C29.037 17.7163 28.9264 17.6419 28.8046 17.5911C28.6827 17.5403 28.552 17.5142 28.42 17.5142C28.288 17.5142 28.1573 17.5403 28.0354 17.5911C27.9136 17.6419 27.803 17.7163 27.71 17.81L27.18 18.34C27.0626 18.4559 26.9136 18.5346 26.7517 18.5664C26.5898 18.5982 26.4221 18.5816 26.2696 18.5186C26.1171 18.4557 25.9865 18.3492 25.8941 18.2126C25.8016 18.0759 25.7515 17.915 25.75 17.75V17C25.75 16.7348 25.6446 16.4804 25.4571 16.2929C25.2696 16.1054 25.0152 16 24.75 16H23.25C22.9848 16 22.7304 16.1054 22.5429 16.2929C22.3554 16.4804 22.25 16.7348 22.25 17V17.75C22.2485 17.915 22.1984 18.0759 22.1059 18.2126C22.0135 18.3492 21.8829 18.4557 21.7304 18.5186C21.5779 18.5816 21.4102 18.5982 21.2483 18.5664C21.0864 18.5346 20.9374 18.4559 20.82 18.34L20.29 17.81C20.197 17.7163 20.0864 17.6419 19.9646 17.5911C19.8427 17.5403 19.712 17.5142 19.58 17.5142C19.448 17.5142 19.3173 17.5403 19.1954 17.5911C19.0736 17.6419 18.963 17.7163 18.87 17.81L17.81 18.87C17.7163 18.963 17.6419 19.0736 17.5911 19.1954C17.5403 19.3173 17.5142 19.448 17.5142 19.58C17.5142 19.712 17.5403 19.8427 17.5911 19.9646C17.6419 20.0864 17.7163 20.197 17.81 20.29L18.34 20.82C18.4559 20.9374 18.5346 21.0864 18.5664 21.2483C18.5982 21.4102 18.5816 21.5779 18.5186 21.7304C18.4557 21.8829 18.3492 22.0135 18.2126 22.1059C18.0759 22.1984 17.915 22.2485 17.75 22.25H17C16.7348 22.25 16.4804 22.3554 16.2929 22.5429C16.1054 22.7304 16 22.9848 16 23.25V24.75C16 25.0152 16.1054 25.2696 16.2929 25.4571C16.4804 25.6446 16.7348 25.75 17 25.75H17.75C17.915 25.7515 18.0759 25.8016 18.2126 25.8941C18.3492 25.9865 18.4557 26.1171 18.5186 26.2696C18.5816 26.4221 18.5982 26.5898 18.5664 26.7517C18.5346 26.9136 18.4559 27.0626 18.34 27.18L17.81 27.71C17.7163 27.803 17.6419 27.9136 17.5911 28.0354C17.5403 28.1573 17.5142 28.288 17.5142 28.42C17.5142 28.552 17.5403 28.6827 17.5911 28.8046C17.6419 28.9264 17.7163 29.037 17.81 29.13L18.87 30.19C18.963 30.2837 19.0736 30.3581 19.1954 30.4089C19.3173 30.4597 19.448 30.4858 19.58 30.4858C19.712 30.4858 19.8427 30.4597 19.9646 30.4089C20.0864 30.3581 20.197 30.2837 20.29 30.19L20.82 29.66C20.9374 29.5441 21.0864 29.4654 21.2483 29.4336C21.4102 29.4018 21.5779 29.4184 21.7304 29.4814C21.8829 29.5443 22.0135 29.6508 22.1059 29.7874C22.1984 29.9241 22.2485 30.085 22.25 30.25V31C22.25 31.2652 22.3554 31.5196 22.5429 31.7071C22.7304 31.8946 22.9848 32 23.25 32H24.75C25.0152 32 25.2696 31.8946 25.4571 31.7071C25.6446 31.5196 25.75 31.2652 25.75 31V30.25C25.7515 30.085 25.8016 29.9241 25.8941 29.7874C25.9865 29.6508 26.1171 29.5443 26.2696 29.4814C26.4221 29.4184 26.5898 29.4018 26.7517 29.4336C26.9136 29.4654 27.0626 29.5441 27.18 29.66L27.71 30.19C27.803 30.2837 27.9136 30.3581 28.0354 30.4089C28.1573 30.4597 28.288 30.4858 28.42 30.4858C28.552 30.4858 28.6827 30.4597 28.8046 30.4089C28.9264 30.3581 29.037 30.2837 29.13 30.19L30.19 29.13C30.2837 29.037 30.3581 28.9264 30.4089 28.8046C30.4597 28.6827 30.4858 28.552 30.4858 28.42C30.4858 28.288 30.4597 28.1573 30.4089 28.0354C30.3581 27.9136 30.2837 27.803 30.19 27.71L29.66 27.18C29.5441 27.0626 29.4654 26.9136 29.4336 26.7517C29.4018 26.5898 29.4184 26.4221 29.4814 26.2696C29.5443 26.1171 29.6508 25.9865 29.7874 25.8941C29.9241 25.8016 30.085 25.7515 30.25 25.75H31C31.2652 25.75 31.5196 25.6446 31.7071 25.4571C31.8946 25.2696 32 25.0152 32 24.75V23.25C32 23.1187 31.9741 22.9886 31.9239 22.8673C31.8736 22.746 31.8 22.6358 31.7071 22.5429C31.6142 22.45 31.504 22.3764 31.3827 22.3261C31.2614 22.2759 31.1313 22.25 31 22.25Z" stroke="white" stroke-width="1.5" stroke-linecap="round" stroke-linejoin="round"/>
<path d="M24 26C25.1046 26 26 25.1046 26 24C26 22.8954 25.1046 22 24 22C22.8954 22 22 22.8954 22 24C22 25.1046 22.8954 26 24 26Z" stroke="white" stroke-width="1.5" stroke-linecap="round" stroke-linejoin="round"/>
</svg>
