<svg width="96" height="17" viewBox="0 0 96 17" fill="none" xmlns="http://www.w3.org/2000/svg">
<g clip-path="url(#clip0_56_485)">
<path d="M11.7066 14.8847C11.6 14.8852 11.4949 14.86 11.4 14.8114L7.99996 13.0314L4.59996 14.8114C4.48956 14.8695 4.36508 14.8954 4.24068 14.8862C4.11628 14.877 3.99695 14.8332 3.89625 14.7595C3.79555 14.6859 3.71752 14.5855 3.67104 14.4698C3.62456 14.354 3.61148 14.2276 3.6333 14.1047L4.29996 10.3514L1.5533 7.68474C1.4676 7.59922 1.40681 7.49198 1.37745 7.37453C1.34809 7.25708 1.35126 7.13385 1.38663 7.01807C1.42527 6.89959 1.49635 6.79431 1.5918 6.71418C1.68725 6.63405 1.80325 6.58228 1.92663 6.56474L5.72663 6.0114L7.39996 2.59141C7.45455 2.47869 7.53979 2.38363 7.6459 2.31712C7.75202 2.25061 7.87473 2.21533 7.99996 2.21533C8.1252 2.21533 8.24791 2.25061 8.35402 2.31712C8.46014 2.38363 8.54537 2.47869 8.59996 2.59141L10.2933 6.00474L14.0933 6.55807C14.2167 6.57561 14.3327 6.62738 14.4281 6.70751C14.5236 6.78764 14.5947 6.89292 14.6333 7.0114C14.6687 7.12719 14.6718 7.25042 14.6425 7.36787C14.6131 7.48532 14.5523 7.59256 14.4666 7.67807L11.72 10.3447L12.3866 14.0981C12.4104 14.2231 12.398 14.3522 12.3507 14.4704C12.3035 14.5885 12.2234 14.6906 12.12 14.7647C11.9992 14.8493 11.8539 14.8915 11.7066 14.8847Z" fill="#FFB82F"/>
</g>
<g clip-path="url(#clip1_56_485)">
<path d="M31.7066 14.8847C31.6 14.8852 31.4949 14.86 31.4 14.8114L28 13.0314L24.6 14.8114C24.4896 14.8695 24.3651 14.8954 24.2407 14.8862C24.1163 14.877 23.9969 14.8332 23.8962 14.7595C23.7956 14.6859 23.7175 14.5855 23.671 14.4698C23.6246 14.354 23.6115 14.2276 23.6333 14.1047L24.3 10.3514L21.5533 7.68474C21.4676 7.59922 21.4068 7.49198 21.3774 7.37453C21.3481 7.25708 21.3513 7.13385 21.3866 7.01807C21.4253 6.89959 21.4963 6.79431 21.5918 6.71418C21.6872 6.63405 21.8032 6.58228 21.9266 6.56474L25.7266 6.0114L27.4 2.59141C27.4546 2.47869 27.5398 2.38363 27.6459 2.31712C27.752 2.25061 27.8747 2.21533 28 2.21533C28.1252 2.21533 28.2479 2.25061 28.354 2.31712C28.4601 2.38363 28.5454 2.47869 28.6 2.59141L30.2933 6.00474L34.0933 6.55807C34.2167 6.57561 34.3327 6.62738 34.4281 6.70751C34.5236 6.78764 34.5947 6.89292 34.6333 7.0114C34.6687 7.12719 34.6718 7.25042 34.6425 7.36787C34.6131 7.48532 34.5523 7.59256 34.4666 7.67807L31.72 10.3447L32.3866 14.0981C32.4104 14.2231 32.398 14.3522 32.3507 14.4704C32.3035 14.5885 32.2234 14.6906 32.12 14.7647C31.9992 14.8493 31.8539 14.8915 31.7066 14.8847Z" fill="#FFB82F"/>
</g>
<path d="M51.7066 14.8847C51.6 14.8852 51.4949 14.86 51.4 14.8114L48 13.0314L44.6 14.8114C44.4896 14.8695 44.3651 14.8954 44.2407 14.8862C44.1163 14.877 43.9969 14.8332 43.8962 14.7595C43.7956 14.6859 43.7175 14.5855 43.671 14.4698C43.6246 14.354 43.6115 14.2276 43.6333 14.1047L44.3 10.3514L41.5533 7.68474C41.4676 7.59922 41.4068 7.49198 41.3774 7.37453C41.3481 7.25708 41.3513 7.13385 41.3866 7.01807C41.4253 6.89959 41.4963 6.79431 41.5918 6.71418C41.6872 6.63405 41.8032 6.58228 41.9266 6.56474L45.7266 6.0114L47.4 2.59141C47.4546 2.47869 47.5398 2.38363 47.6459 2.31712C47.752 2.25061 47.8747 2.21533 48 2.21533C48.1252 2.21533 48.2479 2.25061 48.354 2.31712C48.4601 2.38363 48.5454 2.47869 48.6 2.59141L50.2933 6.00474L54.0933 6.55807C54.2167 6.57561 54.3327 6.62738 54.4281 6.70751C54.5236 6.78764 54.5947 6.89292 54.6333 7.0114C54.6687 7.12719 54.6718 7.25042 54.6425 7.36787C54.6131 7.48532 54.5523 7.59256 54.4666 7.67807L51.72 10.3447L52.3866 14.0981C52.4104 14.2231 52.398 14.3522 52.3507 14.4704C52.3035 14.5885 52.2234 14.6906 52.12 14.7647C51.9992 14.8493 51.8539 14.8915 51.7066 14.8847Z" fill="#FFB82F"/>
<g clip-path="url(#clip2_56_485)">
<path d="M71.7066 14.8847C71.6 14.8852 71.4949 14.86 71.4 14.8114L68 13.0314L64.6 14.8114C64.4896 14.8695 64.3651 14.8954 64.2407 14.8862C64.1163 14.877 63.9969 14.8332 63.8962 14.7595C63.7956 14.6859 63.7175 14.5855 63.671 14.4698C63.6246 14.354 63.6115 14.2276 63.6333 14.1047L64.3 10.3514L61.5533 7.68474C61.4676 7.59922 61.4068 7.49198 61.3774 7.37453C61.3481 7.25708 61.3513 7.13385 61.3866 7.01807C61.4253 6.89959 61.4963 6.79431 61.5918 6.71418C61.6872 6.63405 61.8032 6.58228 61.9266 6.56474L65.7266 6.0114L67.4 2.59141C67.4546 2.47869 67.5398 2.38363 67.6459 2.31712C67.752 2.25061 67.8747 2.21533 68 2.21533C68.1252 2.21533 68.2479 2.25061 68.354 2.31712C68.4601 2.38363 68.5454 2.47869 68.6 2.59141L70.2933 6.00474L74.0933 6.55807C74.2167 6.57561 74.3327 6.62738 74.4281 6.70751C74.5236 6.78764 74.5947 6.89292 74.6333 7.0114C74.6687 7.12719 74.6718 7.25042 74.6425 7.36787C74.6131 7.48532 74.5523 7.59256 74.4666 7.67807L71.72 10.3447L72.3866 14.0981C72.4104 14.2231 72.398 14.3522 72.3507 14.4704C72.3035 14.5885 72.2234 14.6906 72.12 14.7647C71.9992 14.8493 71.8539 14.8915 71.7066 14.8847Z" fill="#FFB82F"/>
</g>
<g clip-path="url(#clip3_56_485)">
<path d="M91.7066 14.8847C91.6 14.8852 91.4949 14.86 91.4 14.8114L88 13.0314L84.6 14.8114C84.4896 14.8695 84.3651 14.8954 84.2407 14.8862C84.1163 14.877 83.9969 14.8332 83.8962 14.7595C83.7956 14.6859 83.7175 14.5855 83.671 14.4698C83.6246 14.354 83.6115 14.2276 83.6333 14.1047L84.3 10.3514L81.5533 7.68474C81.4676 7.59922 81.4068 7.49198 81.3774 7.37453C81.3481 7.25708 81.3513 7.13385 81.3866 7.01807C81.4253 6.89959 81.4963 6.79431 81.5918 6.71418C81.6872 6.63405 81.8032 6.58228 81.9266 6.56474L85.7266 6.0114L87.4 2.59141C87.4546 2.47869 87.5398 2.38363 87.6459 2.31712C87.752 2.25061 87.8747 2.21533 88 2.21533C88.1252 2.21533 88.2479 2.25061 88.354 2.31712C88.4601 2.38363 88.5454 2.47869 88.6 2.59141L90.2933 6.00474L94.0933 6.55807C94.2167 6.57561 94.3327 6.62738 94.4281 6.70751C94.5236 6.78764 94.5947 6.89292 94.6333 7.0114C94.6687 7.12719 94.6718 7.25042 94.6425 7.36787C94.6131 7.48532 94.5523 7.59256 94.4666 7.67807L91.72 10.3447L92.3866 14.0981C92.4104 14.2231 92.398 14.3522 92.3507 14.4704C92.3035 14.5885 92.2234 14.6906 92.12 14.7647C91.9992 14.8493 91.8539 14.8915 91.7066 14.8847Z" fill="#FFB82F"/>
</g>
<defs>
<clipPath id="clip0_56_485">
<rect width="16" height="16" fill="white" transform="translate(0 0.884766)"/>
</clipPath>
<clipPath id="clip1_56_485">
<rect width="16" height="16" fill="white" transform="translate(20 0.884766)"/>
</clipPath>
<clipPath id="clip2_56_485">
<rect width="16" height="16" fill="white" transform="translate(60 0.884766)"/>
</clipPath>
<clipPath id="clip3_56_485">
<rect width="16" height="16" fill="white" transform="translate(80 0.884766)"/>
</clipPath>
</defs>
</svg>
