<svg width="24" height="25" viewBox="0 0 24 25" fill="none" xmlns="http://www.w3.org/2000/svg">
<g clip-path="url(#clip0_33_38)">
<path d="M20.7273 0.884766H3.27273C2.40475 0.884766 1.57232 1.22957 0.95856 1.84333C0.344804 2.45708 0 3.28951 0 4.15749L0 21.612C0 22.48 0.344804 23.3125 0.95856 23.9262C1.57232 24.54 2.40475 24.8848 3.27273 24.8848H20.7273C21.5953 24.8848 22.4277 24.54 23.0414 23.9262C23.6552 23.3125 24 22.48 24 21.612V4.15749C24 3.28951 23.6552 2.45708 23.0414 1.84333C22.4277 1.22957 21.5953 0.884766 20.7273 0.884766ZM8.18182 19.8775C8.182 19.944 8.16904 20.01 8.1437 20.0715C8.11836 20.1331 8.08112 20.189 8.03412 20.2361C7.98713 20.2832 7.9313 20.3206 7.86983 20.3461C7.80836 20.3716 7.74246 20.3848 7.67591 20.3848H5.52C5.45333 20.3849 5.38729 20.3719 5.32566 20.3465C5.26404 20.3211 5.20804 20.2837 5.1609 20.2366C5.11376 20.1894 5.0764 20.1335 5.05097 20.0718C5.02555 20.0102 5.01255 19.9442 5.01273 19.8775V10.8393C5.01273 10.7048 5.06617 10.5757 5.1613 10.4806C5.25644 10.3855 5.38546 10.332 5.52 10.332H7.67591C7.81021 10.3324 7.93889 10.386 8.03372 10.4811C8.12856 10.5762 8.18182 10.705 8.18182 10.8393V19.8775ZM6.59727 9.47567C6.19272 9.47567 5.79725 9.35571 5.46088 9.13095C5.12451 8.9062 4.86234 8.58674 4.70752 8.21298C4.5527 7.83922 4.5122 7.42795 4.59112 7.03117C4.67005 6.63439 4.86486 6.26993 5.15092 5.98387C5.43698 5.6978 5.80145 5.50299 6.19822 5.42407C6.595 5.34514 7.00628 5.38565 7.38003 5.54047C7.75379 5.69528 8.07325 5.95745 8.29801 6.29383C8.52276 6.6302 8.64273 7.02567 8.64273 7.43022C8.64273 7.97271 8.42723 8.49298 8.04363 8.87657C7.66003 9.26017 7.13976 9.47567 6.59727 9.47567ZM19.4509 19.9129C19.4511 19.9742 19.4391 20.035 19.4158 20.0916C19.3924 20.1483 19.3581 20.1998 19.3147 20.2431C19.2714 20.2865 19.2199 20.3208 19.1632 20.3442C19.1066 20.3676 19.0458 20.3795 18.9845 20.3793H16.6664C16.6051 20.3795 16.5443 20.3676 16.4877 20.3442C16.431 20.3208 16.3795 20.2865 16.3362 20.2431C16.2929 20.1998 16.2585 20.1483 16.2351 20.0916C16.2118 20.035 16.1998 19.9742 16.2 19.9129V15.6789C16.2 15.0461 16.3855 12.9079 14.5459 12.9079C13.1209 12.9079 12.8305 14.3711 12.7732 15.0284V19.9184C12.7732 20.0409 12.725 20.1585 12.639 20.2458C12.553 20.3331 12.4361 20.383 12.3136 20.3848H10.0745C10.0134 20.3848 9.95279 20.3727 9.89628 20.3492C9.83978 20.3258 9.78846 20.2914 9.74526 20.2481C9.70206 20.2048 9.66784 20.1533 9.64455 20.0968C9.62126 20.0402 9.60937 19.9796 9.60955 19.9184V10.7998C9.60937 10.7386 9.62126 10.678 9.64455 10.6214C9.66784 10.5648 9.70206 10.5134 9.74526 10.4701C9.78846 10.4268 9.83978 10.3924 9.89628 10.3689C9.95279 10.3455 10.0134 10.3334 10.0745 10.3334H12.3136C12.4373 10.3334 12.5559 10.3825 12.6434 10.47C12.7309 10.5575 12.78 10.6761 12.78 10.7998V11.5879C13.3091 10.7929 14.0932 10.182 15.7664 10.182C19.4727 10.182 19.4482 13.6429 19.4482 15.5439L19.4509 19.9129Z" fill="#2F38FF"/>
</g>
<defs>
<clipPath id="clip0_33_38">
<rect width="24" height="24" fill="white" transform="translate(0 0.884766)"/>
</clipPath>
</defs>
</svg>
