<svg width="24" height="25" viewBox="0 0 24 25" fill="none" xmlns="http://www.w3.org/2000/svg">
<path d="M13.6101 20.5348C13.4242 20.787 13.1816 20.992 12.902 21.1333C12.6223 21.2746 12.3134 21.3483 12.0001 21.3483C11.6867 21.3483 11.3778 21.2746 11.0981 21.1333C10.8185 20.992 10.5759 20.787 10.3901 20.5348C5.39005 13.8348 5.82005 10.6048 5.82005 10.6048C5.82005 8.96577 6.47116 7.39386 7.63013 6.23488C8.78911 5.07591 10.361 4.4248 12.0001 4.4248C13.6391 4.4248 15.211 5.07591 16.37 6.23488C17.5289 7.39386 18.1801 8.96577 18.1801 10.6048C18.1801 10.6048 18.5801 13.8848 13.6101 20.5348Z" stroke="#2F38FF" stroke-width="1.5" stroke-linecap="round" stroke-linejoin="round"/>
<path d="M12 12.5947C13.1046 12.5947 14 11.6993 14 10.5947C14 9.49016 13.1046 8.59473 12 8.59473C10.8954 8.59473 10 9.49016 10 10.5947C10 11.6993 10.8954 12.5947 12 12.5947Z" stroke="#2F38FF" stroke-width="1.5" stroke-linecap="round" stroke-linejoin="round"/>
</svg>
