<svg width="24" height="25" viewBox="0 0 24 25" fill="none" xmlns="http://www.w3.org/2000/svg">
<path d="M6.47003 4.06174L5.00003 5.55174C4.60335 5.94418 4.28843 6.41139 4.07351 6.92633C3.85859 7.44128 3.74792 7.99374 3.74792 8.55174C3.74792 9.10974 3.85859 9.6622 4.07351 10.1771C4.28843 10.6921 4.60335 11.1593 5.00003 11.5517L12.47 19.0117C12.8625 19.4084 13.3297 19.7233 13.8446 19.9383C14.3596 20.1532 14.912 20.2638 15.47 20.2638C16.028 20.2638 16.5805 20.1532 17.0954 19.9383C17.6104 19.7233 18.0776 19.4084 18.47 19.0117L20 17.5417C20.1045 17.4436 20.1877 17.325 20.2446 17.1935C20.3015 17.0619 20.3308 16.9201 20.3308 16.7767C20.3308 16.6334 20.3015 16.4916 20.2446 16.36C20.1877 16.2284 20.1045 16.1099 20 16.0117L17.76 13.7617C17.5599 13.5651 17.2906 13.4549 17.01 13.4549C16.7295 13.4549 16.4601 13.5651 16.26 13.7617L15.51 14.5117C15.3099 14.7084 15.0406 14.8186 14.76 14.8186C14.4795 14.8186 14.2101 14.7084 14.01 14.5117L9.47003 10.0117C9.27338 9.81164 9.16318 9.5423 9.16318 9.26174C9.16318 8.98118 9.27338 8.71184 9.47003 8.51174L10.22 7.76174C10.4167 7.56164 10.5269 7.2923 10.5269 7.01174C10.5269 6.73118 10.4167 6.46184 10.22 6.26174L8.00003 4.06174C7.90185 3.95731 7.78332 3.87408 7.65176 3.81719C7.52019 3.76031 7.37837 3.73096 7.23503 3.73096C7.09169 3.73096 6.94987 3.76031 6.8183 3.81719C6.68674 3.87408 6.56821 3.95731 6.47003 4.06174Z" stroke="white" stroke-linecap="round" stroke-linejoin="round"/>
</svg>
