<svg width="24" height="24" viewBox="0 0 24 24" fill="none" xmlns="http://www.w3.org/2000/svg">
<path fill-rule="evenodd" clip-rule="evenodd" d="M8.81542 14.192C5.08959 14.192 2.0808 11.1692 2.0808 7.47144C2.0808 6.06546 2.50259 4.75791 3.24776 3.6753H1.32157C0.984139 3.6753 0.717004 3.9565 0.717004 4.27987V14.8528H23.297V4.27987C23.297 3.9565 23.0298 3.6753 22.6924 3.6753H14.355C15.1001 4.75791 15.536 6.06546 15.536 7.47144C15.536 11.1692 12.5272 14.192 8.81542 14.192ZM22.369 13.025H14.6502C14.4674 13.025 14.2987 12.8704 14.2987 12.6735C14.2987 12.4767 14.4674 12.3221 14.6502 12.3221H22.369C22.5659 12.3221 22.7205 12.4767 22.7205 12.6735C22.6924 12.8704 22.5377 13.025 22.369 13.025ZM22.369 10.6489H16.2109C16.014 10.6489 15.8594 10.4943 15.8594 10.2974C15.8594 10.1006 16.014 9.94595 16.2109 9.94595H22.355C22.5377 9.94595 22.6924 10.1006 22.6924 10.2974C22.6924 10.4943 22.5377 10.6489 22.369 10.6489ZM22.369 8.2869H16.2109C16.014 8.2869 15.8594 8.13225 15.8594 7.94947C15.8594 7.75263 16.014 7.59798 16.2109 7.59798H22.355C22.5377 7.59798 22.6924 7.75263 22.6924 7.94947C22.6924 8.13225 22.5377 8.2869 22.369 8.2869ZM21.6098 17.004H18.7135C18.5167 17.004 18.362 16.8493 18.362 16.6525C18.362 16.4556 18.5167 16.301 18.7135 16.301H21.6098C21.8066 16.301 21.9613 16.4556 21.9613 16.6525C21.9613 16.8493 21.8066 17.004 21.6098 17.004ZM0.717004 15.5558V17.1727C0.717004 17.5101 0.984139 17.7772 1.32157 17.7772H22.6924C23.0298 17.7772 23.297 17.5101 23.297 17.1727V15.5558H0.717004ZM17.5746 23.7808H6.4112C6.22843 23.7808 6.07377 23.6261 6.07377 23.4293V21.4609C6.07377 21.2641 6.22843 21.1094 6.4112 21.1094H8.61859V18.438H1.32157C0.590466 18.438 0.0280762 17.8757 0.0280762 17.1586V4.27987C0.0280762 3.57689 0.618586 3.00044 1.32157 3.00044H3.78203C5.01929 1.60852 6.81894 0.736816 8.81542 0.736816C10.7978 0.736816 12.5975 1.60852 13.8348 3.00044H22.6783C23.3813 3.00044 23.9718 3.56283 23.9718 4.27987V17.1727C23.9718 17.8757 23.3954 18.438 22.6783 18.438H15.3813V21.1094H17.5746C17.7715 21.1094 17.9261 21.2641 17.9261 21.4609V23.4293C17.9121 23.6261 17.7574 23.7808 17.5746 23.7808ZM9.32157 21.1094H14.6783V18.438H9.32157V21.1094ZM6.74864 23.0918H17.2232V21.8124H6.74864V23.0918ZM4.76621 11.9565C5.14583 11.6894 5.51138 11.5909 5.82069 11.4925C6.10189 11.3941 6.39714 11.3098 6.6924 11.1129C7.18449 10.7614 7.14231 10.0725 6.84706 9.53822C6.74864 9.34138 6.65022 9.13049 6.59398 8.97583C6.5518 8.87741 6.50962 8.779 6.4815 8.72276C6.03159 8.4275 5.59574 7.90729 5.97535 6.96529C5.6801 5.84051 5.69416 5.08128 5.98941 4.64543C5.98941 4.63137 5.98941 4.58919 5.98941 4.54701C6.07377 3.73154 6.5518 3.0145 7.11419 2.91608C7.31103 2.8739 7.50786 2.9442 7.66252 3.05668C8.56235 2.39587 9.58871 2.35369 10.4464 2.95826C11.4868 3.70342 12.1616 5.39059 11.4868 7.11994C11.5852 7.3449 11.7399 7.76669 11.3884 8.23066C11.2899 8.3572 11.2056 8.4275 11.1493 8.46968C11.1493 8.48374 11.1353 8.52592 11.1353 8.5681C11.0931 8.86335 11.0087 9.22891 10.6854 9.62258C10.4042 9.9319 10.3479 10.7614 10.6432 11.0848C11.079 11.5488 11.4446 11.5909 11.8523 11.605C12.1757 11.6331 12.5553 11.6612 12.9209 11.9143C14.1159 10.8177 14.8752 9.22891 14.8752 7.47144C14.8471 4.12522 12.1476 1.41168 8.81542 1.41168C5.48326 1.41168 2.76973 4.12522 2.76973 7.47144C2.76973 9.24297 3.54301 10.8458 4.76621 11.9565ZM12.3444 12.3783C12.1898 12.308 12.007 12.2939 11.7961 12.2799C11.3321 12.2518 10.7557 12.2096 10.137 11.5488C9.58871 10.9583 9.68713 9.73506 10.1511 9.17267C10.3901 8.89147 10.4323 8.66652 10.4464 8.46968C10.4885 8.17443 10.5307 8.03383 10.7275 7.90729C10.7557 7.87917 10.7838 7.86511 10.84 7.78075C10.9525 7.6261 10.9103 7.51362 10.84 7.3449C10.7978 7.26054 10.7557 7.16212 10.7838 7.02153C10.7838 7.00747 10.7978 6.96529 10.7978 6.95123C11.4165 5.57337 10.8963 4.08304 10.0667 3.47847C9.37781 3.00044 8.57641 3.09886 7.85936 3.75966C7.775 3.82996 7.66252 3.85808 7.5641 3.82996C7.46569 3.8159 7.36727 3.73154 7.33915 3.66125C7.29697 3.60501 7.26885 3.56283 7.26885 3.56283C7.26885 3.56283 7.21261 3.56283 7.14231 3.61907C6.94547 3.75966 6.73458 4.12522 6.6924 4.57513C6.6924 4.58919 6.6924 4.61731 6.6924 4.63137C6.6924 4.77197 6.66428 4.84226 6.57992 4.98286C6.4815 5.12346 6.32685 5.53119 6.66428 6.85281C6.66428 6.86687 6.66428 6.86687 6.66428 6.89499C6.6924 7.00747 6.65022 7.09183 6.60804 7.17618C6.4815 7.51362 6.39714 7.86511 6.9033 8.16037C6.93142 8.17443 6.95953 8.20255 6.98765 8.21661C7.05795 8.2869 7.10013 8.37126 7.24073 8.68058C7.31103 8.86335 7.39539 9.04613 7.46569 9.21485C7.90154 9.98813 7.9156 11.0989 7.10013 11.6753C6.70646 11.9284 6.35497 12.0549 6.03159 12.1533C5.79257 12.2236 5.56762 12.2939 5.34266 12.4064C6.32685 13.1094 7.53598 13.5171 8.82948 13.5171C10.1511 13.5171 11.3602 13.0953 12.3444 12.3783Z" fill="#2F38FF"/>
</svg>
