<svg width="24" height="25" viewBox="0 0 24 25" fill="none" xmlns="http://www.w3.org/2000/svg">
<path d="M3.1999 7.85796V3.45796H7.5999C8.1295 3.45796 8.1287 2.65796 7.5999 2.65796H2.7999C2.5791 2.65796 2.3999 2.83716 2.3999 3.05796V7.85796C2.3999 8.38756 3.1999 8.38676 3.1999 7.85796Z" fill="#2F38FF"/>
<path d="M7.5999 21.0596H3.1999V16.6596C3.1999 16.13 2.3999 16.1308 2.3999 16.6596V21.4596C2.3999 21.6804 2.5791 21.8596 2.7999 21.8596H7.5999C8.1295 21.8596 8.1287 21.0596 7.5999 21.0596Z" fill="#2F38FF"/>
<path d="M21.5998 3.05796C21.5998 2.83716 21.4206 2.65796 21.1998 2.65796H16.3998C15.8702 2.65796 15.871 3.45796 16.3998 3.45796H20.7998V7.85796C20.7998 8.38756 21.5998 8.38676 21.5998 7.85796V3.05796Z" fill="#2F38FF"/>
<path d="M20.7998 16.6596V21.0596H16.3998C15.8702 21.0596 15.871 21.8596 16.3998 21.8596H21.1998C21.4206 21.8596 21.5998 21.6804 21.5998 21.4596V16.6596C21.5998 16.13 20.7998 16.1308 20.7998 16.6596Z" fill="#2F38FF"/>
<path d="M6.3999 7.85796C6.3999 8.07876 6.5791 8.25796 6.7999 8.25796H7.5999C7.8207 8.25796 7.9999 8.07876 7.9999 7.85796V7.05796C7.9999 6.83716 7.8207 6.65796 7.5999 6.65796H6.7999C6.5791 6.65796 6.3999 6.83716 6.3999 7.05796V7.85796Z" fill="#2F38FF"/>
<path d="M5.1998 5.05786C4.979 5.05786 4.7998 5.23706 4.7998 5.45786V9.45786C4.7998 9.67866 4.979 9.85786 5.1998 9.85786H9.1998C9.4206 9.85786 9.5998 9.67866 9.5998 9.45786V5.45786C9.5998 5.23706 9.4206 5.05786 9.1998 5.05786H5.1998ZM5.5998 5.85786H8.7998V9.05786H5.5998V5.85786Z" fill="#2F38FF"/>
<path d="M7.9999 16.6581C7.9999 16.4373 7.8207 16.2581 7.5999 16.2581H6.7999C6.5791 16.2581 6.3999 16.4373 6.3999 16.6581V17.4581C6.3999 17.6789 6.5791 17.8581 6.7999 17.8581H7.5999C7.8207 17.8581 7.9999 17.6789 7.9999 17.4581V16.6581Z" fill="#2F38FF"/>
<path d="M9.5998 15.058C9.5998 14.8372 9.4206 14.658 9.1998 14.658H5.1998C4.979 14.658 4.7998 14.8372 4.7998 15.058V19.058C4.7998 19.2788 4.979 19.458 5.1998 19.458H9.1998C9.4206 19.458 9.5998 19.2788 9.5998 19.058V15.058ZM8.7998 18.658H5.5998V15.458H8.7998V18.658Z" fill="#2F38FF"/>
<path d="M16 7.85796C16 8.07876 16.1792 8.25796 16.4 8.25796H17.2C17.4208 8.25796 17.6 8.07876 17.6 7.85796V7.05796C17.6 6.83716 17.4208 6.65796 17.2 6.65796H16.4C16.1792 6.65796 16 6.83716 16 7.05796V7.85796Z" fill="#2F38FF"/>
<path d="M14.3999 9.45786C14.3999 9.67866 14.5791 9.85786 14.7999 9.85786H18.7999C19.0207 9.85786 19.1999 9.67866 19.1999 9.45786V5.45786C19.1999 5.23706 19.0207 5.05786 18.7999 5.05786H14.7999C14.5791 5.05786 14.3999 5.23706 14.3999 5.45786V9.45786ZM15.1999 5.85786H18.3999V9.05786H15.1999V5.85786Z" fill="#2F38FF"/>
<path d="M7.59978 13.8578C7.68698 13.8578 10.9182 13.8578 10.7998 13.8578C11.3294 13.8578 11.3286 13.0578 10.7998 13.0578H9.59978V11.8578C9.59978 11.3282 8.79978 11.329 8.79978 11.8578V13.0578H7.59978C7.07018 13.0578 7.07098 13.8578 7.59978 13.8578Z" fill="#2F38FF"/>
<path d="M11.1999 6.25794V5.45794C11.1999 4.92834 10.3999 4.92914 10.3999 5.45794V6.25794C10.3999 6.78754 11.1999 6.78674 11.1999 6.25794Z" fill="#2F38FF"/>
<path d="M10.8 8.25791H12.4C12.6208 8.25791 12.8 8.07871 12.8 7.85791V6.65791H13.2C13.7296 6.65791 13.7288 5.85791 13.2 5.85791H12.4C12.1792 5.85791 12 6.03711 12 6.25791V7.45791H10.8C10.2704 7.45791 10.2712 8.25791 10.8 8.25791Z" fill="#2F38FF"/>
<path d="M10.8 12.2579H12.4C12.9296 12.2579 12.9288 11.4579 12.4 11.4579H12V9.85786H13.2C13.7296 9.85786 13.7288 9.05786 13.2 9.05786H11.6C11.3792 9.05786 11.2 9.23706 11.2 9.45786V11.4579H10.8C10.2704 11.4579 10.2712 12.2579 10.8 12.2579Z" fill="#2F38FF"/>
<path d="M13.5999 11.858C13.5999 12.3876 14.3999 12.3868 14.3999 11.858V11.058C14.3999 10.5284 13.5999 10.5292 13.5999 11.058V11.858Z" fill="#2F38FF"/>
<path d="M11.1999 16.258H11.9999V16.658C11.9999 17.1876 12.7999 17.1868 12.7999 16.658V14.258C12.7999 13.7284 11.9999 13.7292 11.9999 14.258V15.458H10.7999C10.5791 15.458 10.3999 15.6372 10.3999 15.858V16.658C10.3999 17.1876 11.1999 17.1868 11.1999 16.658V16.258Z" fill="#2F38FF"/>
<path d="M14.3998 16.6579V17.0579H13.9998C13.779 17.0579 13.5998 17.2371 13.5998 17.4579V18.6579H11.5998C11.0702 18.6579 11.071 19.4579 11.5998 19.4579H13.9998C14.2206 19.4579 14.3998 19.2787 14.3998 19.0579V17.8579H14.7998C15.0206 17.8579 15.1998 17.6787 15.1998 17.4579V16.6579C15.1998 16.1283 14.3998 16.1291 14.3998 16.6579Z" fill="#2F38FF"/>
<path d="M16.7998 17.4579V18.6579H16.3998C15.8702 18.6579 15.871 19.4579 16.3998 19.4579H18.7998C19.3294 19.4579 19.3286 18.6579 18.7998 18.6579H17.5998V17.4579C17.5998 16.9283 16.7998 16.9291 16.7998 17.4579Z" fill="#2F38FF"/>
<path d="M19.1998 15.058C19.1998 14.8372 19.0206 14.658 18.7998 14.658H16.3998C15.8702 14.658 15.871 15.458 16.3998 15.458H18.3998V16.6596C18.3998 17.1892 19.1998 17.1884 19.1998 16.6596V15.058Z" fill="#2F38FF"/>
<path d="M19.1999 11.8578C19.1999 11.3282 18.3999 11.329 18.3999 11.8578V13.0578H17.9999C17.4703 13.0578 17.4711 13.8578 17.9999 13.8578H18.7999C19.0207 13.8578 19.1999 13.6786 19.1999 13.4578V11.8578Z" fill="#2F38FF"/>
<path d="M16.7999 13.458V11.458H17.1999C17.7295 11.458 17.7287 10.658 17.1999 10.658H16.3999C16.1791 10.658 15.9999 10.8372 15.9999 11.058V13.058H14.7999C14.5791 13.058 14.3999 13.2372 14.3999 13.458V14.658H13.9999C13.4703 14.658 13.4711 15.458 13.9999 15.458H14.7999C15.0207 15.458 15.1999 15.2788 15.1999 15.058V13.858H16.3999C16.6207 13.858 16.7999 13.6788 16.7999 13.458Z" fill="#2F38FF"/>
<path d="M4.7998 11.058C4.7998 11.1772 4.7998 13.574 4.7998 13.458C4.7998 13.9876 5.5998 13.9868 5.5998 13.458V12.258H6.7998C7.3294 12.258 7.3286 11.458 6.7998 11.458H5.5998V11.058C5.5998 10.5284 4.7998 10.5292 4.7998 11.058Z" fill="#2F38FF"/>
</svg>
