<svg width="24" height="25" viewBox="0 0 24 25" fill="none" xmlns="http://www.w3.org/2000/svg">
<path d="M7.69012 10.6044L15.6901 7.94442C15.8655 7.88745 16.0532 7.88009 16.2325 7.92315C16.4118 7.96621 16.5757 8.05801 16.7061 8.1884C16.8365 8.31879 16.9283 8.4827 16.9714 8.66201C17.0144 8.84131 17.0071 9.02903 16.9501 9.20442L14.2901 17.2044C14.2244 17.4045 14.0971 17.5787 13.9265 17.7022C13.7559 17.8257 13.5507 17.8922 13.3401 17.8922C13.1295 17.8922 12.9243 17.8257 12.7537 17.7022C12.5831 17.5787 12.4559 17.4045 12.3901 17.2044L11.3901 14.2044C11.3413 14.0549 11.2579 13.9191 11.1467 13.8079C11.0355 13.6967 10.8996 13.6133 10.7501 13.5644L7.75012 12.5644C7.52228 12.5259 7.3148 12.4097 7.16296 12.2355C7.01112 12.0613 6.92429 11.84 6.91722 11.609C6.91015 11.378 6.98328 11.1518 7.12418 10.9686C7.26508 10.7855 7.46506 10.6568 7.69012 10.6044Z" stroke="white" stroke-width="1.5" stroke-miterlimit="10"/>
<path d="M11.21 13.6746L12.62 12.2646" stroke="white" stroke-width="1.5" stroke-miterlimit="10" stroke-linecap="round"/>
</svg>
