<svg width="24" height="25" viewBox="0 0 24 25" fill="none" xmlns="http://www.w3.org/2000/svg">
<path d="M23.6586 17.7056C23.5628 17.4651 23.2902 17.3478 23.0496 17.4438C22.8092 17.5397 22.692 17.8123 22.7879 18.0528C23.2326 19.1679 23.1267 20.4029 22.542 21.4087C22.3025 20.7387 21.7461 20.2073 21.0288 20.018L20.9032 19.9848C21.0806 19.6896 21.1829 19.3443 21.1829 18.9755V18.5851C21.1829 17.5013 20.3012 16.6197 19.2175 16.6197C18.1337 16.6197 17.252 17.5013 17.252 18.5851V18.9755C17.252 19.3443 17.3543 19.6895 17.5317 19.9847L17.406 20.0179C16.6891 20.2072 16.1328 20.7383 15.8931 21.4079C15.0404 19.9375 15.2422 18.0185 16.4996 16.7611C17.5808 15.6799 19.1995 15.3419 20.6235 15.9006C20.8645 15.9952 21.1365 15.8764 21.231 15.6354C21.3256 15.3944 21.2068 15.1224 20.9658 15.0279C19.195 14.3333 17.1816 14.7533 15.8367 16.0982C15.6128 16.3221 15.4139 16.5643 15.2413 16.8214L10.9645 14.5346C11.5895 13.0877 11.5895 11.4333 10.9645 9.98646L15.2429 7.69874C15.4148 7.95576 15.6126 8.19876 15.8367 8.42277C16.7397 9.32581 17.9404 9.82311 19.2174 9.82311C20.4945 9.82311 21.6951 9.32581 22.5981 8.42277C24.4622 6.55866 24.4622 3.52549 22.5981 1.66137C21.2449 0.308192 19.2217 -0.108102 17.4441 0.601019C17.2037 0.696924 17.0864 0.969548 17.1824 1.20997C17.2782 1.45044 17.551 1.5679 17.7914 1.47172C19.2208 0.901626 20.8474 1.23636 21.9354 2.32427C23.1929 3.58174 23.3946 5.5006 22.5419 6.97101C22.3021 6.30146 21.7459 5.77027 21.0289 5.58108L20.9033 5.5479C21.0807 5.25268 21.183 4.90745 21.183 4.53864V4.14817C21.183 3.06443 20.3013 2.18276 19.2175 2.18276C18.1338 2.18276 17.2521 3.06443 17.2521 4.14817V4.53864C17.2521 4.90745 17.3544 5.25263 17.5318 5.54785L17.4061 5.58104C16.6891 5.77027 16.1328 6.30145 15.8931 6.9712C15.313 5.97183 15.2043 4.74484 15.6392 3.63592C15.7338 3.39494 15.615 3.12293 15.374 3.02843C15.133 2.93379 14.8611 3.05266 14.7665 3.29364C14.3056 4.46851 14.3359 5.74983 14.8009 6.87211L10.5228 9.15964C10.3071 8.82561 10.0535 8.50911 9.76132 8.21685C8.87398 7.32951 7.74965 6.76931 6.50986 6.59677C5.31089 6.42975 4.06665 6.65269 3.00639 7.224C2.77849 7.34681 2.69327 7.63115 2.81603 7.85896C2.93889 8.08687 3.22328 8.17208 3.451 8.04932C5.29411 7.05618 7.61647 7.39767 9.09837 8.87971C10.6356 10.417 10.9049 12.7491 9.90687 14.565C9.60846 13.7412 8.92226 13.0882 8.03872 12.855L7.68533 12.7618C7.96733 12.3665 8.13392 11.8835 8.13392 11.3621V10.854C8.13392 9.5217 7.05004 8.43782 5.71772 8.43782C4.3854 8.43782 3.30147 9.5217 3.30147 10.854V11.3621C3.30147 11.8836 3.46806 12.3665 3.75006 12.7618L3.39667 12.8551C2.51449 13.0879 1.82904 13.7392 1.52993 14.5612C0.769389 13.1656 0.730811 11.4334 1.50659 9.99368C1.6294 9.76578 1.54423 9.48144 1.31632 9.35872C1.08828 9.23586 0.804123 9.32108 0.681358 9.54898C0.109955 10.6093 -0.112793 11.8536 0.0539399 13.0525C0.226486 14.2923 0.786686 15.4167 1.67402 16.304C2.78885 17.4188 4.25326 17.9763 5.71767 17.9763C7.18209 17.9763 8.64645 17.4188 9.76132 16.304C10.0536 16.0117 10.3072 15.6952 10.5228 15.3613L14.7983 17.6474C14.5609 18.2203 14.4365 18.84 14.4365 19.4789C14.4365 20.7559 14.9338 21.9565 15.8368 22.8596C16.769 23.7917 17.9933 24.2577 19.2176 24.2577C20.4419 24.2577 21.6663 23.7917 22.5983 22.8596C23.9515 21.5065 24.3677 19.4834 23.6586 17.7056ZM18.1896 4.14831C18.1896 3.58145 18.6508 3.12035 19.2176 3.12035C19.7844 3.12035 20.2456 3.5815 20.2456 4.14831V4.53878C20.2456 5.10559 19.7844 5.56669 19.2176 5.56669C18.6508 5.56669 18.1896 5.10554 18.1896 4.53878V4.14831ZM16.7018 7.80988V7.71234C16.7018 7.13779 17.0898 6.63422 17.6453 6.48759L18.3498 6.30164C18.6117 6.43106 18.9062 6.50414 19.2175 6.50414C19.5288 6.50414 19.8233 6.43106 20.0851 6.30169L20.7896 6.48764C21.3452 6.63422 21.7331 7.13784 21.7331 7.71238V7.94404C21.7331 7.94498 21.7333 7.94587 21.7333 7.94676C21.0347 8.55364 20.1519 8.88571 19.2175 8.88571C18.2757 8.88571 17.3862 8.54839 16.685 7.93237C16.6957 7.89327 16.7018 7.85235 16.7018 7.80988ZM4.23896 10.8543C4.23896 10.0389 4.90229 9.3755 5.71777 9.3755C6.53315 9.3755 7.19652 10.0388 7.19652 10.8543V11.3623C7.19652 12.1777 6.5332 12.8411 5.71777 12.8411C4.90233 12.8411 4.23896 12.1778 4.23896 11.3623V10.8543ZM9.13231 15.6064C9.12097 15.618 9.10986 15.6297 9.09837 15.6412C7.2343 17.5054 4.20109 17.5054 2.33697 15.6412C2.32535 15.6296 2.31447 15.6175 2.30299 15.6059V15.4919C2.30299 14.6803 2.8511 13.9688 3.63587 13.7617L4.60482 13.5059C4.93815 13.6797 5.31647 13.7785 5.71767 13.7785C6.11887 13.7785 6.49715 13.6797 6.83048 13.5059L7.79943 13.7616C8.58416 13.9687 9.13231 14.6802 9.13231 15.4919V15.6064ZM18.1896 18.5852C18.1896 18.0183 18.6508 17.5572 19.2176 17.5572C19.7844 17.5572 20.2456 18.0184 20.2456 18.5852V18.9756C20.2456 19.5424 19.7844 20.0036 19.2176 20.0036C18.6508 20.0036 18.1896 19.5424 18.1896 18.9756V18.5852ZM16.6851 22.3692C16.6957 22.3301 16.7018 22.2892 16.7018 22.2467V22.1492C16.7018 21.5747 17.0898 21.0711 17.6453 20.9244L18.3498 20.7385C18.6117 20.8679 18.9062 20.941 19.2175 20.941C19.5288 20.941 19.8233 20.8679 20.0852 20.7385L20.7896 20.9244C21.3452 21.071 21.7331 21.5746 21.7331 22.1492V22.3808C21.7331 22.3817 21.7333 22.3825 21.7333 22.3834C20.2885 23.6367 18.1245 23.632 16.6851 22.3692Z" fill="#2F38FF"/>
</svg>
