<svg width="24" height="25" viewBox="0 0 24 25" fill="none" xmlns="http://www.w3.org/2000/svg">
<path d="M20.65 10.9518L18.87 9.17181V6.64181C18.87 6.24398 18.7119 5.86245 18.4306 5.58115C18.1493 5.29984 17.7678 5.14181 17.37 5.14181H14.84L13.06 3.36181C12.9214 3.22152 12.7563 3.11013 12.5744 3.03411C12.3924 2.95809 12.1972 2.91895 12 2.91895C11.8028 2.91895 11.6075 2.95809 11.4256 3.03411C11.2436 3.11013 11.0786 3.22152 10.94 3.36181L9.15997 5.14181H6.62997C6.23214 5.14181 5.85061 5.29984 5.56931 5.58115C5.288 5.86245 5.12997 6.24398 5.12997 6.64181V9.17181L3.34997 10.9518C3.20968 11.0904 3.09829 11.2555 3.02227 11.4374C2.94625 11.6194 2.9071 11.8146 2.9071 12.0118C2.9071 12.209 2.94625 12.4042 3.02227 12.5862C3.09829 12.7682 3.20968 12.9332 3.34997 13.0718L5.12997 14.8518V17.3818C5.12997 17.7796 5.288 18.1612 5.56931 18.4425C5.85061 18.7238 6.23214 18.8818 6.62997 18.8818H9.15997L10.94 20.6618C11.0786 20.8021 11.2436 20.9135 11.4256 20.9895C11.6075 21.0655 11.8028 21.1047 12 21.1047C12.1972 21.1047 12.3924 21.0655 12.5744 20.9895C12.7563 20.9135 12.9214 20.8021 13.06 20.6618L14.84 18.8818H17.37C17.7678 18.8818 18.1493 18.7238 18.4306 18.4425C18.7119 18.1612 18.87 17.7796 18.87 17.3818V14.8518L20.65 13.0718C20.7903 12.9332 20.9016 12.7682 20.9777 12.5862C21.0537 12.4042 21.0928 12.209 21.0928 12.0118C21.0928 11.8146 21.0537 11.6194 20.9777 11.4374C20.9016 11.2555 20.7903 11.0904 20.65 10.9518Z" stroke="#BBBEFF" stroke-width="1.5" stroke-linejoin="round"/>
<path d="M8.41003 12.2317L10.66 14.4817L15.59 9.54175" stroke="#BBBEFF" stroke-width="1.5" stroke-linecap="round" stroke-linejoin="round"/>
</svg>
