<svg width="122" height="122" viewBox="0 0 122 122" fill="none" xmlns="http://www.w3.org/2000/svg">
<g filter="url(#filter0_d_508_15)">
<circle cx="61" cy="57" r="41" fill="white"/>
</g>
<path d="M60.9361 56.6767C63.6862 55.1027 65.5652 52.1718 65.5652 48.7826C65.5652 43.748 61.4693 39.6521 56.4348 39.6521C51.4003 39.6521 47.3043 43.748 47.3043 48.7826C47.3043 52.1718 49.1834 55.1027 51.9334 56.6767C45.0546 58.4828 40 64.2989 40 71.1923V73.4347C40 73.9387 40.4091 74.3478 40.9131 74.3478C41.4171 74.3478 41.8261 73.9387 41.8261 73.4347V71.1923C41.8261 63.8716 48.3799 57.913 56.4348 57.913C64.4896 57.913 71.0435 63.8716 71.0435 71.1923V73.4347C71.0435 73.9387 71.4526 74.3478 71.9566 74.3478C72.4606 74.3478 72.8696 73.9387 72.8696 73.4347V71.1923C72.8695 64.2989 67.8149 58.481 60.9361 56.6767ZM49.1305 48.7826C49.1305 44.7542 52.4065 41.4782 56.4348 41.4782C60.4631 41.4782 63.7391 44.7542 63.7391 48.7826C63.7391 52.8109 60.4631 56.0869 56.4348 56.0869C52.4065 56.0869 49.1305 52.811 49.1305 48.7826Z" fill="#2F38FF"/>
<path d="M73.2312 56.7006C75.2106 55.3913 76.5218 53.1525 76.5218 50.6088C76.5218 46.5804 73.2458 43.3044 69.2175 43.3044C68.7135 43.3044 68.3044 43.7135 68.3044 44.2175C68.3044 44.7215 68.7135 45.1306 69.2175 45.1306C72.2378 45.1306 74.6958 47.5885 74.6958 50.6088C74.6958 53.6292 72.2378 56.0871 69.2175 56.0871C68.7135 56.0871 68.3044 56.4962 68.3044 57.0002C68.3044 57.5042 68.7134 57.9131 69.2174 57.9131C75.2599 57.9131 80.1739 62.4545 80.1739 68.0387V69.7826C80.1739 70.2866 80.583 70.6956 81.087 70.6956C81.591 70.6956 82.0001 70.2866 82.0001 69.7826V68.0387C82.0001 62.7613 78.3187 58.2783 73.2312 56.7006Z" fill="#2F38FF"/>
<defs>
<filter id="filter0_d_508_15" x="0" y="0" width="122" height="122" filterUnits="userSpaceOnUse" color-interpolation-filters="sRGB">
<feFlood flood-opacity="0" result="BackgroundImageFix"/>
<feColorMatrix in="SourceAlpha" type="matrix" values="0 0 0 0 0 0 0 0 0 0 0 0 0 0 0 0 0 0 127 0" result="hardAlpha"/>
<feOffset dy="4"/>
<feGaussianBlur stdDeviation="10"/>
<feComposite in2="hardAlpha" operator="out"/>
<feColorMatrix type="matrix" values="0 0 0 0 0 0 0 0 0 0 0 0 0 0 0 0 0 0 0.2 0"/>
<feBlend mode="normal" in2="BackgroundImageFix" result="effect1_dropShadow_508_15"/>
<feBlend mode="normal" in="SourceGraphic" in2="effect1_dropShadow_508_15" result="shape"/>
</filter>
</defs>
</svg>
