<svg width="122" height="122" viewBox="0 0 122 122" fill="none" xmlns="http://www.w3.org/2000/svg">
<g filter="url(#filter0_d_508_14)">
<circle cx="61" cy="57" r="41" fill="white"/>
</g>
<g clip-path="url(#clip0_508_14)">
<path d="M78.6129 46.8387H71.8387C71.8387 44.5971 70.0158 42.7742 67.7742 42.7742C65.5326 42.7742 63.7097 44.5971 63.7097 46.8387H54.8904C55.7446 45.7047 56.2581 44.3004 56.2581 42.7742C56.2581 39.0389 53.2192 36 49.4839 36C45.7486 36 42.7097 39.0389 42.7097 42.7742C42.7097 44.3004 43.2232 45.7047 44.0774 46.8387H43.3871C41.5195 46.8387 40 48.3582 40 50.2258V70.5484C40 72.416 41.5195 73.9355 43.3871 73.9355H50.8387V76.6452H48.129V78H50.8387H71.1613H73.871V76.6452H71.1613V73.9355H78.6129C80.4805 73.9355 82 72.416 82 70.5484V50.2258C82 48.3582 80.4805 46.8387 78.6129 46.8387ZM67.7742 44.129C69.2686 44.129 70.4839 45.3443 70.4839 46.8387C70.4839 48.3331 69.2686 49.5484 67.7742 49.5484C66.2798 49.5484 65.0645 48.3331 65.0645 46.8387C65.0645 45.3443 66.2798 44.129 67.7742 44.129ZM63.9468 48.1935C64.1324 48.7158 64.421 49.1887 64.7895 49.5884L59.1385 55.8044C58.3032 55.278 57.3169 54.9677 56.2581 54.9677C55.6626 54.9677 55.0915 55.068 54.555 55.2462L52.264 48.9448C52.7219 48.7375 53.1514 48.4801 53.5484 48.1807V48.1935H63.9468ZM60.3226 60.3871C60.3226 62.6287 58.4996 64.4516 56.2581 64.4516C54.0165 64.4516 52.1935 62.6287 52.1935 60.3871C52.1935 58.1455 54.0165 56.3226 56.2581 56.3226C58.4996 56.3226 60.3226 58.1455 60.3226 60.3871ZM44.0645 42.7742C44.0645 39.7861 46.4958 37.3548 49.4839 37.3548C52.472 37.3548 54.9032 39.7861 54.9032 42.7742C54.9032 45.7623 52.472 48.1935 49.4839 48.1935C46.4958 48.1935 44.0645 45.7623 44.0645 42.7742ZM69.8065 76.6452H52.1935V73.9355H69.8065V76.6452ZM80.6452 70.5484C80.6452 71.6688 79.7334 72.5806 78.6129 72.5806H71.1613H50.8387H43.3871C42.2666 72.5806 41.3548 71.6688 41.3548 70.5484V69.871H80.6452V70.5484ZM80.6452 68.5161H41.3548V50.2258C41.3548 49.1054 42.2666 48.1935 43.3871 48.1935H45.4194V48.1807C46.5534 49.0349 47.9576 49.5484 49.4839 49.5484C49.998 49.5484 50.4973 49.4854 50.9789 49.3763L53.3275 55.8348C51.8325 56.8008 50.8387 58.4788 50.8387 60.3871C50.8387 63.3752 53.27 65.8065 56.2581 65.8065C59.2462 65.8065 61.6774 63.3752 61.6774 60.3871C61.6774 58.9455 61.1084 57.6375 60.1871 56.6654L65.8618 50.4229C66.4322 50.7291 67.0832 50.9032 67.7742 50.9032C68.6779 50.9032 69.5104 50.6031 70.1858 50.1032L74.2314 53.6434C74.0085 54.0363 73.871 54.4841 73.871 54.9677C73.871 56.4621 75.0863 57.6774 76.5806 57.6774C78.075 57.6774 79.2903 56.4621 79.2903 54.9677C79.2903 53.4734 78.075 52.2581 76.5806 52.2581C76.0624 52.2581 75.5828 52.4118 75.1709 52.6645L71.1295 49.1284C71.3259 48.8412 71.4831 48.5268 71.6016 48.1935H78.6129C79.7334 48.1935 80.6452 49.1054 80.6452 50.2258V68.5161ZM75.2258 54.9677C75.2258 54.2205 75.8335 53.6129 76.5806 53.6129C77.3278 53.6129 77.9355 54.2205 77.9355 54.9677C77.9355 55.7149 77.3278 56.3226 76.5806 56.3226C75.8335 56.3226 75.2258 55.7149 75.2258 54.9677Z" fill="#2F38FF"/>
<path d="M79.2904 65.8064H77.9355V67.1612H79.2904V65.8064Z" fill="#2F38FF"/>
<path d="M76.5807 65.8064H71.1614V67.1612H76.5807V65.8064Z" fill="#2F38FF"/>
<path d="M79.2904 63.0967H71.1614V64.4515H79.2904V63.0967Z" fill="#2F38FF"/>
</g>
<defs>
<filter id="filter0_d_508_14" x="0" y="0" width="122" height="122" filterUnits="userSpaceOnUse" color-interpolation-filters="sRGB">
<feFlood flood-opacity="0" result="BackgroundImageFix"/>
<feColorMatrix in="SourceAlpha" type="matrix" values="0 0 0 0 0 0 0 0 0 0 0 0 0 0 0 0 0 0 127 0" result="hardAlpha"/>
<feOffset dy="4"/>
<feGaussianBlur stdDeviation="10"/>
<feComposite in2="hardAlpha" operator="out"/>
<feColorMatrix type="matrix" values="0 0 0 0 0 0 0 0 0 0 0 0 0 0 0 0 0 0 0.2 0"/>
<feBlend mode="normal" in2="BackgroundImageFix" result="effect1_dropShadow_508_14"/>
<feBlend mode="normal" in="SourceGraphic" in2="effect1_dropShadow_508_14" result="shape"/>
</filter>
<clipPath id="clip0_508_14">
<rect width="42" height="42" fill="white" transform="translate(40 36)"/>
</clipPath>
</defs>
</svg>
