<svg width="122" height="122" viewBox="0 0 122 122" fill="none" xmlns="http://www.w3.org/2000/svg">
<g filter="url(#filter0_d_508_17)">
<circle cx="61" cy="57" r="41" fill="white"/>
</g>
<path d="M80.9612 53.2584C80.779 51.5908 80.13 50.3582 79.0324 49.5946C77.907 48.8106 76.3235 48.5763 74.4183 48.8924V47.7924C74.4183 46.2978 73.2025 45.0819 71.7078 45.0819H56.0304L56.2769 44.3227C56.6413 43.2026 56.2456 41.9846 55.2923 41.2919L52.4781 39.2472C51.9853 38.8894 52.1022 38.3834 52.1499 38.2369C52.1971 38.0904 52.4 37.6127 53.0088 37.6127H56.4878C57.6657 37.6127 58.7016 36.86 59.066 35.7399L60.1406 32.4312C60.329 31.852 60.846 31.807 61 31.807C61.154 31.807 61.671 31.852 61.8594 32.4312L62.934 35.7399C63.2984 36.86 64.3343 37.6127 65.5122 37.6127H68.9912C69.6 37.6127 69.8029 38.0904 69.8501 38.2369C69.8978 38.3834 70.0147 38.8894 69.5219 39.2472L66.7069 41.2928C66.5022 41.4419 66.3204 41.6171 66.1669 41.8134C65.8594 42.2065 65.9286 42.7742 66.3217 43.0817C66.8304 43.4879 67.409 43.1961 67.7701 42.7539L70.5842 40.7092C71.5521 40.006 71.9386 38.8166 71.5689 37.6784C71.1992 36.5406 70.1876 35.8057 68.9912 35.8057H65.5122C65.1196 35.8057 64.7741 35.5547 64.6528 35.1814L63.5781 31.8727C63.208 30.735 62.196 30 61 30C59.804 30 58.792 30.735 58.4219 31.8727L57.3472 35.1814C57.2259 35.5547 56.8804 35.8057 56.4878 35.8057H53.0088C51.8124 35.8057 50.8008 36.5406 50.4311 37.6784C50.0614 38.8166 50.4479 40.006 51.4158 40.7092L54.2299 42.7539C54.548 42.9847 54.6799 43.3905 54.5582 43.7642L54.1302 45.0819H50.2921C48.7975 45.0819 47.5817 46.2978 47.5817 47.7924V48.893C45.6804 48.5772 44.0994 48.8097 42.9742 49.5902C41.8726 50.3534 41.2214 51.5877 41.0388 53.2589C40.5599 57.8642 44.6132 59.1678 47.7354 60.4209C48.6722 66.9107 54.255 71.9186 61 71.9186C61.6826 71.9186 62.3482 71.851 63.0037 71.7522V76.5526H58.9962V74.3666C58.9962 73.8677 58.5917 73.4631 58.0927 73.4631C57.5938 73.4631 57.1892 73.8677 57.1892 74.3666V76.5526H55.8565C53.3657 76.5526 51.339 78.5793 51.339 81.0701V83.3063C51.339 83.8053 51.7436 84.2098 52.2425 84.2098H69.7575C70.2564 84.2098 70.661 83.8053 70.661 83.3063V81.0701C70.661 78.5793 68.6343 76.5526 66.1435 76.5526H64.8107V71.3595C69.7607 69.8896 73.5117 65.6366 74.2646 60.4212C77.3868 59.1684 81.4402 57.8638 80.9612 53.2584ZM68.854 81.0701V82.4028H53.146V81.0701C53.146 79.5754 54.3619 78.3596 55.8565 78.3596H66.1435C67.6381 78.3596 68.854 79.5754 68.854 81.0701ZM42.8352 53.4552C42.9601 52.3117 43.3421 51.5335 44.0034 51.0751C44.955 50.4151 46.3815 50.4867 47.5817 50.7258V58.4151C44.4228 57.1612 42.5414 56.1455 42.8352 53.4552ZM61 70.1116C54.5974 70.1116 49.3887 64.9028 49.3887 58.5003V47.7924C49.3887 47.2944 49.7941 46.8889 50.2922 46.8889H71.7079C72.2059 46.8889 72.6114 47.2944 72.6114 47.7924V58.5003C72.6114 64.9029 67.4026 70.1116 61 70.1116ZM74.4183 58.4151V50.7254C75.6134 50.4877 77.0467 50.4139 78.0001 51.0777C78.6592 51.5361 79.0399 52.3139 79.1648 53.4547C79.4587 56.1455 77.5772 57.1613 74.4183 58.4151Z" fill="#2F38FF"/>
<defs>
<filter id="filter0_d_508_17" x="0" y="0" width="122" height="122" filterUnits="userSpaceOnUse" color-interpolation-filters="sRGB">
<feFlood flood-opacity="0" result="BackgroundImageFix"/>
<feColorMatrix in="SourceAlpha" type="matrix" values="0 0 0 0 0 0 0 0 0 0 0 0 0 0 0 0 0 0 127 0" result="hardAlpha"/>
<feOffset dy="4"/>
<feGaussianBlur stdDeviation="10"/>
<feComposite in2="hardAlpha" operator="out"/>
<feColorMatrix type="matrix" values="0 0 0 0 0 0 0 0 0 0 0 0 0 0 0 0 0 0 0.2 0"/>
<feBlend mode="normal" in2="BackgroundImageFix" result="effect1_dropShadow_508_17"/>
<feBlend mode="normal" in="SourceGraphic" in2="effect1_dropShadow_508_17" result="shape"/>
</filter>
</defs>
</svg>
