<svg width="24" height="25" viewBox="0 0 24 25" fill="none" xmlns="http://www.w3.org/2000/svg">
<path d="M22.7747 7.26096C22.5154 6.29704 21.7554 5.5372 20.7916 5.27765C19.0309 4.7959 11.988 4.7959 11.988 4.7959C11.988 4.7959 4.94536 4.7959 3.18466 5.25938C2.23943 5.51866 1.46091 6.29718 1.20163 7.26096C0.738281 9.02151 0.738281 12.6727 0.738281 12.6727C0.738281 12.6727 0.738281 16.3423 1.20163 18.0844C1.46118 19.0482 2.22089 19.808 3.1848 20.0676C4.9639 20.5495 11.9883 20.5495 11.9883 20.5495C11.9883 20.5495 19.0309 20.5495 20.7916 20.086C21.7555 19.8266 22.5154 19.0667 22.7749 18.103C23.2381 16.3423 23.2381 12.6912 23.2381 12.6912C23.2381 12.6912 23.2567 9.02151 22.7747 7.26096ZM9.7457 16.0458V9.29961L15.6022 12.6727L9.7457 16.0458Z" fill="#2F38FF"/>
</svg>
