<svg width="25" height="25" viewBox="0 0 25 25" fill="none" xmlns="http://www.w3.org/2000/svg">
<g clip-path="url(#clip0_33_42)">
<path d="M7.58053 24.863C6.09735 24.863 4.60874 24.9124 3.12556 24.8575C1.37073 24.786 0.0288086 23.2963 0.0288086 21.5208C0.0288086 15.7874 0.0396744 10.054 0.0288086 4.3151C0.0288086 2.35266 1.54459 0.983904 3.28854 0.934431C5.11399 0.884957 6.94488 0.923437 8.77576 0.923437C8.80836 0.923437 8.85182 0.906946 8.86812 0.961916C8.85726 1.06086 8.75947 1.07186 8.6997 1.11034C7.62399 1.74799 6.64064 2.51208 5.81484 3.45756C4.45118 5.01872 3.50586 6.81075 3.18532 8.89412C2.6203 12.5716 3.75577 15.6939 6.32553 18.2995C6.78189 18.7668 6.84165 19.1296 6.47765 19.7562C6.03759 20.5093 5.36934 21.0205 4.65763 21.4878C4.58157 21.5318 4.50551 21.5867 4.42945 21.6362C4.31536 21.7352 4.38599 21.7846 4.48378 21.8286C4.50551 21.8781 4.53268 21.9221 4.56527 21.966C5.19006 22.5267 5.78224 23.1259 6.39616 23.6976C6.6841 23.967 6.97204 24.2473 7.24912 24.5276C7.36321 24.6321 7.55336 24.6651 7.58053 24.863Z" fill="#2F38FF"/>
<path d="M7.58063 24.863C7.55347 24.6706 7.36332 24.6377 7.24923 24.5222C6.97215 24.2364 6.68421 23.9615 6.39626 23.6922C5.78235 23.1205 5.19016 22.5213 4.56538 21.9606C4.53278 21.9166 4.50562 21.8727 4.48389 21.8232C5.86927 22.098 7.22206 21.9111 8.55312 21.4989C9.00405 21.3614 9.45498 21.224 9.91134 21.1086C10.221 21.0261 10.547 21.0426 10.8458 21.1526C14.2903 22.3509 17.6912 22.241 21.0379 20.7568C22.4016 20.1466 23.6457 19.2891 24.6997 18.2171C24.754 18.1622 24.792 18.0797 24.8898 18.0742C24.9387 18.1512 24.9116 18.2336 24.9116 18.3161V21.5318C24.9224 23.3679 23.4664 24.863 21.6518 24.8795H21.6247C19.6688 24.8905 17.713 24.8795 15.7571 24.8795H7.90661C7.79795 24.8685 7.68929 24.863 7.58063 24.863Z" fill="#2F38FF"/>
<path d="M8.42816 12.5602C9.24852 12.5602 10.02 12.5547 10.786 12.5602C11.2152 12.5657 11.4488 12.7471 11.4923 13.0934C11.5412 13.5277 11.2913 13.819 10.8241 13.8245C9.94393 13.8355 9.06924 13.83 8.18911 13.83C7.93376 13.83 7.68385 13.841 7.4285 13.8245C7.1134 13.808 6.80372 13.742 6.6516 13.4122C6.49948 13.0824 6.60814 12.7856 6.81459 12.5162C7.65125 11.4388 8.49335 10.3559 9.33545 9.27847C9.38434 9.2125 9.43324 9.14654 9.48214 9.08607C9.42781 8.99262 9.35175 9.0366 9.28655 9.0311C8.6998 9.02561 8.10762 9.0311 7.52086 9.02561C7.38504 9.02561 7.24922 9.00911 7.11883 8.98163C6.80915 8.91017 6.619 8.59684 6.68963 8.289C6.73853 8.08012 6.90151 7.90971 7.10796 7.86024C7.23835 7.82725 7.37418 7.81076 7.51 7.81076C8.47705 7.80527 9.44954 7.80527 10.4166 7.81076C10.5904 7.80527 10.7589 7.82725 10.9273 7.87123C11.2967 7.99766 11.4543 8.34397 11.3076 8.70678C11.1772 9.02011 10.9707 9.28946 10.7643 9.55882C10.0526 10.4768 9.34088 11.3893 8.62917 12.2963C8.56941 12.3678 8.51508 12.4393 8.42816 12.5602Z" fill="#2F38FF"/>
<path d="M14.7301 9.66896C14.8605 9.49855 14.9963 9.33914 15.219 9.29516C15.6482 9.20721 16.0503 9.48756 16.0557 9.92732C16.072 11.0267 16.0666 12.1261 16.0557 13.2255C16.0557 13.5114 15.871 13.7642 15.6048 13.8467C15.3331 13.9511 15.0235 13.8687 14.8442 13.6323C14.7518 13.5169 14.7138 13.4949 14.5834 13.5993C14.089 14.0061 13.5294 14.0776 12.9264 13.8797C11.9593 13.5609 11.5627 12.7968 11.4541 11.8678C11.34 10.8618 11.6714 10.0043 12.5624 9.47657C13.3012 9.03131 14.051 9.06979 14.7301 9.66896ZM12.8068 11.6754C12.8177 11.9172 12.8938 12.1481 13.035 12.3405C13.3284 12.7363 13.888 12.8188 14.2846 12.5219C14.3498 12.4724 14.4095 12.412 14.4639 12.3405C14.7681 11.9227 14.7681 11.2356 14.4639 10.8178C14.3118 10.6035 14.0727 10.477 13.8174 10.4715C13.2197 10.433 12.8014 10.9003 12.8068 11.6754ZM18.4951 11.7084C18.4516 10.2956 19.3698 9.24019 20.6737 9.20171C22.0591 9.15774 23.0696 10.0977 23.113 11.472C23.1565 12.8627 22.3144 13.8467 21.0159 13.9786C19.598 14.1215 18.4733 13.0826 18.4951 11.7084ZM19.8587 11.5764C19.8479 11.8513 19.9294 12.1206 20.0923 12.346C20.3912 12.7418 20.9507 12.8188 21.3419 12.5109C21.4017 12.4669 21.4506 12.412 21.4995 12.357C21.8146 11.9392 21.8146 11.2356 21.5049 10.8178C21.3528 10.609 21.1137 10.477 20.8584 10.4715C20.2716 10.4385 19.8587 10.8893 19.8587 11.5764ZM18.017 10.6144C18.017 11.4665 18.0224 12.3185 18.017 13.1706C18.0224 13.5609 17.7182 13.8852 17.3324 13.8962C17.2672 13.8962 17.1966 13.8907 17.1314 13.8742C16.8598 13.8027 16.6533 13.5114 16.6533 13.1651V8.79493C16.6533 8.53657 16.6479 8.28371 16.6533 8.02535C16.6588 7.60208 16.925 7.32723 17.327 7.32723C17.7399 7.32173 18.017 7.59658 18.017 8.03635C18.0224 8.89388 18.017 9.75691 18.017 10.6144Z" fill="#2F38FF"/>
<path d="M3.58748 0.939915H21.4128C23.3632 0.939915 24.9442 2.53955 24.9442 4.51298V21.169C24.9442 23.3849 23.5 24.8849 21.5001 24.8849H3.50014C1.5 24.8849 -0.0560893 23.4264 0 21.2105L4.90912e-06 4.38495C0 2.38495 1.5 0.884949 3.58748 0.939915Z" stroke="#2F38FF" stroke-width="0.25" stroke-miterlimit="10"/>
</g>
<defs>
<clipPath id="clip0_33_42">
<rect width="25" height="24" fill="white" transform="translate(0 0.884766)"/>
</clipPath>
</defs>
</svg>
